C:\Users\r0593348\3dpredictsim\Results\batch_windlass\Pog_s1_tmt_bCst_d00_k1000_WL10_ig24_pas_GRF.mot
nRows=12
nColumns=19

name C:\Users\r0593348\3dpredictsim\Results\batch_windlass\Pog_s1_tmt_bCst_d00_k1000_WL10_ig24_pas_GRF.mot
datacolumns 19
datarows 12
range 0.0000000000 0.1190517844
endheader
time 	ground_force_vx	ground_force_vy	ground_force_vz	ground_force_px	ground_force_py	ground_force_pz	1_ground_force_vx	1_ground_force_vy	1_ground_force_vz	1_ground_force_px	1_ground_force_py	1_ground_force_pz	ground_torque_x	ground_torque_y	ground_torque_z	1_ground_torque_x	1_ground_torque_y	1_ground_torque_z
        0.0000000000	      -74.7310837895	       55.4888413996	       21.0028384441	        0.1317384308	        0.0000000000	        0.0430166370	       99.8610531227	      442.4236926162	        0.6198879891	       -0.3352895449	        0.0000000000	       -0.0329316330	        0.0000000000	        0.0000000000	        0.0000000000	        0.0000000000	        0.0000000000	        0.0000000000	
        0.0108228895	     -122.0905921580	      112.0638807873	       43.2249877048	        0.1424374615	        0.0000000000	        0.0406119196	       75.6692126898	      345.0916354470	       -4.8509002065	       -0.3295641566	        0.0000000000	       -0.0305780116	        0.0000000000	        0.0000000000	        0.0000000000	        0.0000000000	        0.0000000000	        0.0000000000	
        0.0216457790	     -118.9589663440	      236.3650302491	       59.9237146131	        0.1538605629	        0.0000000000	        0.0404047937	       38.0009367737	      233.3124944456	      -12.3593585052	       -0.3189145693	        0.0000000000	       -0.0254164402	        0.0000000000	        0.0000000000	        0.0000000000	        0.0000000000	        0.0000000000	        0.0000000000	
        0.0324686685	      -65.3544091443	      489.0206540825	        8.2102414393	        0.1651457985	        0.0000000000	        0.0414971047	       13.3148048265	      153.1590888909	      -14.9931633863	       -0.3046129219	        0.0000000000	       -0.0172965810	        0.0000000000	        0.0000000000	        0.0000000000	        0.0000000000	        0.0000000000	        0.0000000000	
        0.0432915580	      -90.2708016792	      736.5234483083	      -10.9191366981	        0.1746931103	        0.0000000000	        0.0423667257	        2.7720565210	      122.1292433258	      -12.1797689230	       -0.3052636140	        0.0000000000	       -0.0174383599	        0.0000000000	        0.0000000000	        0.0000000000	        0.0000000000	        0.0000000000	        0.0000000000	
        0.0541144475	     -122.0419808632	      927.2440153905	      -16.5955432650	        0.1845343463	        0.0000000000	        0.0418122377	       -3.7903592575	       79.6455462225	      -10.2079257676	       -0.3051404928	        0.0000000000	       -0.0174238044	        0.0000000000	        0.0000000000	        0.0000000000	        0.0000000000	        0.0000000000	        0.0000000000	
        0.0649373370	     -135.4775864703	      991.8272552352	      -15.4027152618	        0.1932494569	        0.0000000000	        0.0409185233	      -10.1935699344	       29.0241276535	       -5.1179095109	       -0.3060777136	        0.0000000000	       -0.0173610658	        0.0000000000	        0.0000000000	        0.0000000000	        0.0000000000	        0.0000000000	        0.0000000000	
        0.0757602265	     -126.7005971774	      955.7124903160	      -11.4960909986	        0.1974297151	        0.0000000000	        0.0403124966	        0.1011868460	       -0.1069364128	        0.0136162048	        0.0000000000	        0.0000000000	        0.0000000000	        0.0000000000	        0.0000000000	        0.0000000000	        0.0000000000	        0.0000000000	        0.0000000000	
        0.0865831160	     -108.1860204573	      885.5945648602	      -10.8985596623	        0.2006064114	        0.0000000000	        0.0398341071	        0.0001953272	       -0.0001739686	        0.0000070454	        0.0000000000	        0.0000000000	        0.0000000000	        0.0000000000	        0.0000000000	        0.0000000000	        0.0000000000	        0.0000000000	        0.0000000000	
        0.0974060055	      -92.3331434542	      820.8224285559	      -11.7832057364	        0.2038064975	        0.0000000000	        0.0394692042	        0.0000088875	       -0.0000068054	       -0.0000000513	        0.0000000000	        0.0000000000	        0.0000000000	        0.0000000000	        0.0000000000	        0.0000000000	        0.0000000000	        0.0000000000	        0.0000000000	
        0.1082288949	      -78.5502923615	      769.2054623531	      -13.0486092812	        0.2069930081	        0.0000000000	        0.0392180844	        0.0000164084	       -0.0000110134	       -0.0000005395	        0.0000000000	        0.0000000000	        0.0000000000	        0.0000000000	        0.0000000000	        0.0000000000	        0.0000000000	        0.0000000000	        0.0000000000	
        0.1190517844	      -65.6593027971	      726.9486332816	      -14.1088160015	        0.2102129420	        0.0000000000	        0.0390631360	        0.0003099037	       -0.0001869404	       -0.0000159699	        0.0000000000	        0.0000000000	        0.0000000000	        0.0000000000	        0.0000000000	        0.0000000000	        0.0000000000	        0.0000000000	        0.0000000000	
